<?xml version="1.0" standalone="no"?>
<!DOCTYPE svg PUBLIC "-//W3C//DTD SVG 20010904//EN"
 "http://www.w3.org/TR/2001/REC-SVG-20010904/DTD/svg10.dtd">
<svg version="1.0" xmlns="http://www.w3.org/2000/svg"
 width="1280.000000pt" height="640.000000pt" viewBox="0 0 1280.000000 640.000000"
 preserveAspectRatio="xMidYMid meet">
<metadata>
Created by potrace 1.15, written by Peter Selinger 2001-2017
</metadata>
<g transform="translate(0.000000,640.000000) scale(0.100000,-0.100000)"
fill="#000000" stroke="none">
<path d="M11888 3526 c-78 -27 -206 -95 -258 -136 -20 -16 -49 -47 -65 -69
l-28 -41 -5763 0 -5764 0 0 -54 c0 -29 -3 -68 -6 -85 l-6 -31 5773 0 5774 0
45 -56 c48 -61 108 -108 185 -147 48 -24 126 -50 132 -43 2 1 -15 27 -38 57
-42 56 -79 121 -79 138 0 7 9 7 26 1 39 -15 76 -12 112 10 18 11 35 20 39 20
3 0 3 -34 0 -76 -4 -57 -3 -73 6 -66 110 86 245 154 352 177 39 8 161 24 273
37 177 19 202 24 202 39 0 20 2 20 -258 44 -303 28 -479 92 -531 193 l-19 37
-8 -40 c-4 -22 -7 -59 -7 -82 1 -41 -8 -55 -22 -33 -12 19 -100 11 -129 -11
-15 -12 -29 -20 -31 -18 -8 9 39 86 104 169 39 49 68 90 64 89 -5 0 -38 -11
-75 -23z"/>
</g>
</svg>
