<?xml version="1.0" standalone="no"?>
<!DOCTYPE svg PUBLIC "-//W3C//DTD SVG 20010904//EN"
 "http://www.w3.org/TR/2001/REC-SVG-20010904/DTD/svg10.dtd">
<svg version="1.0" xmlns="http://www.w3.org/2000/svg"
 width="1280.000000pt" height="640.000000pt" viewBox="0 0 1280.000000 640.000000"
 preserveAspectRatio="xMidYMid meet">
<metadata>
Created by potrace 1.15, written by Peter Selinger 2001-2017
</metadata>
<g transform="translate(0.000000,640.000000) scale(0.100000,-0.100000)"
fill="#000000" stroke="none">
<path d="M2352 4638 c-14 -14 -16 -90 -2 -138 5 -20 23 -57 40 -83 l30 -48 0
-448 0 -449 -67 -6 c-296 -26 -640 -40 -1018 -41 -526 0 -599 9 -722 91 -84
56 -154 78 -253 78 -77 1 -92 -2 -152 -32 -121 -59 -193 -172 -205 -320 -18
-240 99 -509 258 -594 37 -19 59 -23 134 -23 96 0 125 10 251 85 89 53 169 63
509 62 165 0 438 -5 606 -11 284 -10 560 -4 632 14 l23 6 -4 -358 c-3 -337 -4
-361 -24 -408 -25 -60 -37 -210 -19 -244 12 -21 16 -21 272 -21 l259 0 10 26
c6 14 10 55 10 92 0 54 -6 80 -30 130 l-30 64 0 296 0 296 51 -78 c28 -42 61
-82 74 -88 34 -15 137 10 436 108 l255 84 260 10 c321 12 1119 34 2219 60 462
11 1031 24 1265 30 234 5 630 14 880 20 250 6 649 15 885 20 510 12 1182 26
1830 40 1152 24 1052 20 1139 47 166 52 563 230 625 280 16 13 22 26 18 36
-13 33 -451 237 -629 292 l-83 25 -4245 8 -4245 7 -100 37 c-55 20 -167 62
-250 93 -124 48 -161 58 -215 59 l-65 1 -50 -67 -50 -67 -3 390 -2 390 25 42
c47 81 53 183 12 209 -21 13 -531 10 -545 -4z"/>
</g>
</svg>
